Format                                   : Matroska
Format version                           : Version 2
File size                                : 4.36 GiB
Duration                                 : 1h 48mn
Overall bit rate                         : 5 748 Kbps
Writing application                      : mkvmerge v4.1.1 ('Bouncin' Back') built on Jul  3 2010 22:54:08
Writing library                          : libebml v1.0.0 + libmatroska v1.0

Video
ID                                       : 1
Format                                   : AVC
Format/Info                              : Advanced Video Codec
Format profile                           : High@L4.1
Format settings, CABAC                   : Yes
Format settings, ReFrames                : 5 frames
Codec ID                                 : V_MPEG4/ISO/AVC
Duration                                 : 1h 48mn
Bit rate                                 : 4 238 Kbps
Width                                    : 1 280 pixels
Height                                   : 536 pixels
Display aspect ratio                     : 2.40:1
Frame rate mode                          : Constant
Frame rate                               : 23.976 fps
Color space                              : YUV
Chroma subsampling                       : 4:2:0
Bit depth                                : 8 bits
Scan type                                : Progressive
Bits/(Pixel*Frame)                       : 0.258
Stream size                              : 3.13 GiB (72%)
Writing library                          : x264 core 130 r2273 b3065e6
Encoding settings                        : cabac=1 / ref=5 / deblock=1:0:0 / analyse=0x3:0x113 / me=umh / subme=8 / psy=1 / psy_rd=1.00:0.00 / mixed_ref=1 / me_range=16 / chroma_me=1 / trellis=1 / 8x8dct=1 / cqm=0 / deadzone=21,11 / fast_pskip=1 / chroma_qp_offset=-2 / threads=12 / lookahead_threads=2 / sliced_threads=0 / nr=0 / decimate=1 / interlaced=0 / bluray_compat=0 / constrained_intra=0 / bframes=3 / b_pyramid=2 / b_adapt=2 / b_bias=0 / direct=3 / weightb=1 / open_gop=0 / weightp=2 / keyint=240 / keyint_min=24 / scenecut=40 / intra_refresh=0 / rc_lookahead=50 / rc=2pass / mbtree=1 / bitrate=4238 / ratetol=1.0 / qcomp=0.60 / qpmin=0 / qpmax=69 / qpstep=4 / cplxblur=20.0 / qblur=0.5 / ip_ratio=1.40 / aq=1:1.00
Language                                 : English
Default                                  : Yes
Forced                                   : No

Audio
ID                                       : 2
Format                                   : DTS
Format/Info                              : Digital Theater Systems
Mode                                     : 16
Format settings, Endianness              : Big
Codec ID                                 : A_DTS
Duration                                 : 1h 48mn
Bit rate mode                            : Constant
Bit rate                                 : 1 509 Kbps
Channel(s)                               : 6 channels
Channel positions                        : Front: L C R, Side: L R, LFE
Sampling rate                            : 48.0 KHz
Bit depth                                : 24 bits
Compression mode                         : Lossy
Stream size                              : 1.15 GiB (26%)
Title                                    : French DTS 1509kbps
Language                                 : French
Default                                  : Yes
Forced                                   : No

Text
ID                                       : 3
Format                                   : UTF-8
Codec ID                                 : S_TEXT/UTF8
Codec ID/Info                            : UTF-8 Plain Text
Title                                    : French_forced
Language                                 : French
Default                                  : Yes
Forced                                   : Yes

Menu
00:00:00.000                             : en:00:00:00.000
00:07:27.447                             : en:00:07:27.447
00:14:28.326                             : en:00:14:28.326
00:20:49.123                             : en:00:20:49.123
00:29:02.157                             : en:00:29:02.157
00:34:05.460                             : en:00:34:05.460
00:40:37.518                             : en:00:40:37.518
00:46:11.686                             : en:00:46:11.686
00:52:03.370                             : en:00:52:03.370
01:00:58.572                             : en:01:00:58.572
01:08:01.619                             : en:01:08:01.619
01:14:20.873                             : en:01:14:20.873
01:23:21.121                             : en:01:23:21.121
01:28:38.021                             : en:01:28:38.021
01:35:52.163                             : en:01:35:52.163
01:42:36.525                             : en:01:42:36.525

Screens:
 
http://i.imgur.com/BXVHj6h.png 
http://i.imgur.com/PBzSdnM.png 
http://i.imgur.com/0ebJYSb.png 
http://i.imgur.com/0rvGfxl.jpg 
http://i.imgur.com/VharYF5.jpg